<svg width="1401" height="526" viewBox="0 0 1401 526" fill="none" xmlns="http://www.w3.org/2000/svg">
<g clip-path="url(#clip0_285_2099)">
<path d="M1026.93 164.43H489.34C479.52 164.43 471.56 172.39 471.56 182.21V503.87C471.56 513.689 479.52 521.65 489.34 521.65H1026.93C1036.75 521.65 1044.71 513.689 1044.71 503.87V182.21C1044.71 172.39 1036.75 164.43 1026.93 164.43Z" fill="white" stroke="#2E186A" stroke-width="6" stroke-linecap="round" stroke-linejoin="round"/>
<path d="M478.45 168.17L747.66 377.55C750.644 379.925 754.346 381.219 758.16 381.219C761.974 381.219 765.676 379.925 768.66 377.55L1037.87 168.17" stroke="#2E186A" stroke-width="6" stroke-linecap="round" stroke-linejoin="round"/>
<path d="M477.72 455.33L641.96 295.6" stroke="#2E186A" stroke-width="6" stroke-linecap="round" stroke-linejoin="round"/>
<path d="M875.77 295.6L1043.16 458.39" stroke="#2E186A" stroke-width="6" stroke-linecap="round" stroke-linejoin="round"/>
<path d="M323 288.57L387.32 276.7C387.32 276.7 358.32 203.47 411.78 116.83C465.24 30.1901 559.91 60.2201 615.67 99.4001C615.67 99.4001 549.29 -8.22989 466.01 14.7701C382.73 37.7701 342.1 88.8901 325.76 176.59C309.42 264.29 323 288.57 323 288.57Z" fill="white" stroke="#2E186A" stroke-width="6" stroke-linecap="round" stroke-linejoin="round"/>
<path d="M287.38 342.999C284.57 316.239 296.82 290.119 342.66 275.129C388.5 260.139 434.74 292.259 437.39 302.059C440.04 311.859 504.73 486.359 433.13 503.589C361.53 520.819 303.44 460.839 297.5 428.519C291.56 396.199 287.38 342.999 287.38 342.999Z" fill="white" stroke="#2E186A" stroke-width="6" stroke-linecap="round" stroke-linejoin="round"/>
<path d="M417.9 352.338C413.9 340.608 388.53 308.688 365.9 328.978C343.27 349.268 359.9 431.528 406.5 423.308C453.1 415.088 417.9 352.338 417.9 352.338Z" stroke="#2E186A" stroke-width="6" stroke-linecap="round" stroke-linejoin="round"/>
<path d="M622 256.461C597.73 242.651 542.19 224.631 510.93 236.831C479.67 249.031 421.78 279.051 407.93 407.831C394.08 536.611 547 516.141 547 516.141L622 256.461Z" fill="white" stroke="#2E186A" stroke-width="6" stroke-linecap="round" stroke-linejoin="round"/>
<path d="M656.86 274.69C658.77 264.57 663.25 241.74 663.25 241.74C669.14 212.81 674.62 185.74 673.5 158.2C671.21 101.59 635.23 51.4301 595.82 30.5501C510.32 -14.7599 455 3.73011 455 3.73011C271.64 65.7301 304.92 267.73 308.88 288.62C272.07 306.5 256.4 331.24 259.17 365.85C261.31 384.73 258.81 476.97 305.53 503.15C352.25 529.33 398.94 521.83 429.53 504.43C359.8 518.66 309.71 454.33 303.87 422.55C297.94 390.23 293.87 342.4 293.87 342.4C291.6 320.82 301.23 297.97 333.39 281.7L333.23 280.1H333.29C333.23 279.77 333.18 279.43 333.13 279.1L332.96 277.45L332.89 277.53C328.4 247.8 321.1 170 357.65 108.1C404.49 28.7301 458.49 24.1701 458.49 24.1701C561.29 9.00011 599 120.89 596.67 181.78C594.56 236.46 563.87 249.46 557.67 251.55C549.941 250.672 542.123 252.062 535.17 255.55C512.69 259.55 475.97 309.5 454.17 359.55C454.17 359.69 454.25 359.84 454.28 359.99L453.75 360.51C443.54 384.15 436.75 407.73 436.34 426.37C434.022 436.21 434.315 446.485 437.192 456.176C440.069 465.868 445.429 474.639 452.74 481.62L462.43 479.62C461.484 482.1 460.284 484.476 458.85 486.71C461.423 488.561 464.142 490.2 466.98 491.61L516.98 516.34C522.196 518.91 527.869 520.423 533.673 520.791C539.476 521.159 545.295 520.375 550.794 518.484C556.293 516.593 561.363 513.633 565.713 509.775C570.063 505.916 573.607 501.234 576.14 496L577.62 493C600.62 496 630.89 472.84 649.51 436.11C669.02 397.62 668.95 357.65 650.44 342.25C651.64 330.88 651.24 313.69 654.31 290.61C655.09 285.21 655.94 279.903 656.86 274.69Z" fill="#0B5ED7"/>
<path d="M569 470C484.67 489.69 335.83 485.62 173.75 456.6L172.75 459.41C171.319 455.301 168.863 451.626 165.615 448.732C162.368 445.838 158.435 443.82 154.19 442.87L111 433.21C104.378 431.728 97.4377 432.937 91.7067 436.571C85.9757 440.205 81.923 445.967 80.44 452.59L80 454.73C79.2647 458.008 79.1824 461.399 79.758 464.71C80.3335 468.02 81.5556 471.184 83.3543 474.022C85.1531 476.86 87.4933 479.316 90.2413 481.249C92.9893 483.182 96.0913 484.555 99.37 485.29L142.53 495C145.845 495.744 149.275 495.817 152.619 495.216C155.962 494.615 159.152 493.351 162 491.5L161.46 493.1C161.46 493.1 319.8 540.67 549.16 520.77C549.15 520.77 569.3 472.51 569 470Z" fill="#0B5ED7"/>
<path d="M443.73 479.299C443.73 479.299 530.73 491.119 555.73 456.609C591.07 450.279 579.29 499.269 579.29 499.269" stroke="white" stroke-width="6" stroke-linecap="round" stroke-linejoin="round"/>
<path d="M637.22 339C637.22 339 590.22 316.19 555.76 456.62" stroke="white" stroke-width="6" stroke-linecap="round" stroke-linejoin="round"/>
<path d="M1230.53 500.626L1230.53 500.626L1183.95 519.589L681.711 518.259H681.71C679.754 518.259 677.926 517.072 676.567 515.032C675.211 512.995 674.36 510.155 674.37 507L674.37 507L674.43 486.34V486.339C674.43 483.185 675.295 480.356 676.662 478.33C678.031 476.301 679.866 475.125 681.819 475.129C681.819 475.129 681.819 475.129 681.819 475.129L1184.07 476.499L1230.55 495.701L1230.56 495.704L1230.56 495.707C1230.91 495.839 1231.21 496.135 1231.42 496.575C1231.63 497.015 1231.74 497.569 1231.74 498.14C1231.74 498.711 1231.62 499.27 1231.41 499.719C1231.19 500.169 1230.89 500.48 1230.53 500.626Z" fill="#F495D1" fill-opacity="0.1" stroke="black"/>
<path d="M691.64 520.899L691.79 458.029L815.32 460.569" stroke="#2E186A" stroke-width="6" stroke-linecap="round" stroke-linejoin="round"/>
<path d="M866.68 495.93H753.48" stroke="white" stroke-width="6" stroke-linecap="round" stroke-linejoin="round"/>
<path d="M3 522.551H1397.89" stroke="#2E186A" stroke-width="6" stroke-linecap="round" stroke-linejoin="round"/>
</g>
<defs>
<clipPath id="clip0_285_2099">
<rect width="1400.89" height="525.64" fill="white"/>
</clipPath>
</defs>
</svg>
